<svg xmlns="http://www.w3.org/2000/svg" width="46" height="46" viewBox="0 0 46 46">
  <g fill="none" fill-rule="evenodd">
    <path fill="#FFF" d="M23 45c12.15 0 22-9.85 22-22S35.15 1 23 1 1 10.85 1 23s9.85 22 22 22z"/>
    <path fill="#4285F4" d="M32.52 24.5c0-.7-.06-1.37-.17-2H23v3.8h5.36c-.23 1.23-.93 2.28-1.98 2.98v2.48h3.2c1.87-1.73 2.94-4.28 2.94-7.26z"/>
    <path fill="#34A853" d="M23 33c2.7 0 4.97-.9 6.63-2.44l-3.2-2.48c-.89.6-2.02.96-3.43.96-2.64 0-4.88-1.78-5.68-4.18h-3.3v2.62C16.04 30.98 19.25 33 23 33z"/>
    <path fill="#FBBC05" d="M17.32 24.86a6.03 6.03 0 0 1 0-3.72v-2.62h-3.3A9.98 9.98 0 0 0 13 23c0 1.56.37 3.04 1.02 4.48l3.3-2.62z"/>
    <path fill="#EA4335" d="M23 17.98c1.47 0 2.78.51 3.81 1.5l2.85-2.85C27.97 14.9 25.7 14 23 14c-3.75 0-6.96 2.02-8.68 4.98l3.3 2.62c.8-2.4 3.04-4.18 5.68-4.18z"/>
  </g>
</svg> 